<mxfile host="app.diagrams.net" agent="Mozilla/5.0 (Windows NT 10.0; Win64; x64; rv:130.0) Gecko/20100101 Firefox/130.0" version="24.7.16">
  <diagram id="C5RBs43oDa-KdzZeNtuy" name="Page-1">
    <mxGraphModel dx="880" dy="469" grid="1" gridSize="10" guides="1" tooltips="1" connect="1" arrows="1" fold="1" page="1" pageScale="1" pageWidth="827" pageHeight="1169" math="0" shadow="0">
      <root>
        <mxCell id="WIyWlLk6GJQsqaUBKTNV-0" />
        <mxCell id="WIyWlLk6GJQsqaUBKTNV-1" parent="WIyWlLk6GJQsqaUBKTNV-0" />
        <mxCell id="v9vbpIkVkLCxPb-EZByk-1" value="" style="edgeStyle=orthogonalEdgeStyle;rounded=0;orthogonalLoop=1;jettySize=auto;html=1;" edge="1" parent="WIyWlLk6GJQsqaUBKTNV-1" source="WIyWlLk6GJQsqaUBKTNV-3" target="v9vbpIkVkLCxPb-EZByk-0">
          <mxGeometry relative="1" as="geometry" />
        </mxCell>
        <mxCell id="WIyWlLk6GJQsqaUBKTNV-3" value="start" style="rounded=1;whiteSpace=wrap;html=1;fontSize=12;glass=0;strokeWidth=1;shadow=0;" parent="WIyWlLk6GJQsqaUBKTNV-1" vertex="1">
          <mxGeometry x="160" y="80" width="120" height="40" as="geometry" />
        </mxCell>
        <mxCell id="v9vbpIkVkLCxPb-EZByk-3" value="" style="edgeStyle=orthogonalEdgeStyle;rounded=0;orthogonalLoop=1;jettySize=auto;html=1;" edge="1" parent="WIyWlLk6GJQsqaUBKTNV-1" source="v9vbpIkVkLCxPb-EZByk-0" target="v9vbpIkVkLCxPb-EZByk-2">
          <mxGeometry relative="1" as="geometry" />
        </mxCell>
        <mxCell id="v9vbpIkVkLCxPb-EZByk-5" value="" style="edgeStyle=orthogonalEdgeStyle;rounded=0;orthogonalLoop=1;jettySize=auto;html=1;" edge="1" parent="WIyWlLk6GJQsqaUBKTNV-1" source="v9vbpIkVkLCxPb-EZByk-0" target="v9vbpIkVkLCxPb-EZByk-4">
          <mxGeometry relative="1" as="geometry" />
        </mxCell>
        <mxCell id="v9vbpIkVkLCxPb-EZByk-7" value="" style="edgeStyle=orthogonalEdgeStyle;rounded=0;orthogonalLoop=1;jettySize=auto;html=1;" edge="1" parent="WIyWlLk6GJQsqaUBKTNV-1" source="v9vbpIkVkLCxPb-EZByk-0" target="v9vbpIkVkLCxPb-EZByk-4">
          <mxGeometry relative="1" as="geometry" />
        </mxCell>
        <mxCell id="v9vbpIkVkLCxPb-EZByk-9" value="" style="edgeStyle=orthogonalEdgeStyle;rounded=0;orthogonalLoop=1;jettySize=auto;html=1;" edge="1" parent="WIyWlLk6GJQsqaUBKTNV-1" source="v9vbpIkVkLCxPb-EZByk-0" target="v9vbpIkVkLCxPb-EZByk-8">
          <mxGeometry relative="1" as="geometry" />
        </mxCell>
        <mxCell id="v9vbpIkVkLCxPb-EZByk-0" value="action button" style="whiteSpace=wrap;html=1;rounded=1;glass=0;strokeWidth=1;shadow=0;" vertex="1" parent="WIyWlLk6GJQsqaUBKTNV-1">
          <mxGeometry x="160" y="190" width="120" height="60" as="geometry" />
        </mxCell>
        <mxCell id="v9vbpIkVkLCxPb-EZByk-11" value="" style="edgeStyle=orthogonalEdgeStyle;rounded=0;orthogonalLoop=1;jettySize=auto;html=1;" edge="1" parent="WIyWlLk6GJQsqaUBKTNV-1" source="v9vbpIkVkLCxPb-EZByk-2" target="v9vbpIkVkLCxPb-EZByk-10">
          <mxGeometry relative="1" as="geometry" />
        </mxCell>
        <mxCell id="v9vbpIkVkLCxPb-EZByk-2" value="exit" style="whiteSpace=wrap;html=1;rounded=1;glass=0;strokeWidth=1;shadow=0;" vertex="1" parent="WIyWlLk6GJQsqaUBKTNV-1">
          <mxGeometry x="40" y="320" width="120" height="60" as="geometry" />
        </mxCell>
        <mxCell id="v9vbpIkVkLCxPb-EZByk-4" value="?" style="whiteSpace=wrap;html=1;rounded=1;glass=0;strokeWidth=1;shadow=0;" vertex="1" parent="WIyWlLk6GJQsqaUBKTNV-1">
          <mxGeometry x="279" y="320" width="120" height="60" as="geometry" />
        </mxCell>
        <mxCell id="v9vbpIkVkLCxPb-EZByk-13" value="" style="edgeStyle=orthogonalEdgeStyle;rounded=0;orthogonalLoop=1;jettySize=auto;html=1;" edge="1" parent="WIyWlLk6GJQsqaUBKTNV-1" source="v9vbpIkVkLCxPb-EZByk-8" target="v9vbpIkVkLCxPb-EZByk-12">
          <mxGeometry relative="1" as="geometry" />
        </mxCell>
        <mxCell id="v9vbpIkVkLCxPb-EZByk-8" value="refresh" style="whiteSpace=wrap;html=1;rounded=1;glass=0;strokeWidth=1;shadow=0;" vertex="1" parent="WIyWlLk6GJQsqaUBKTNV-1">
          <mxGeometry x="160" y="320" width="120" height="60" as="geometry" />
        </mxCell>
        <mxCell id="v9vbpIkVkLCxPb-EZByk-10" value="end" style="whiteSpace=wrap;html=1;rounded=1;glass=0;strokeWidth=1;shadow=0;" vertex="1" parent="WIyWlLk6GJQsqaUBKTNV-1">
          <mxGeometry x="40" y="400" width="120" height="60" as="geometry" />
        </mxCell>
        <mxCell id="v9vbpIkVkLCxPb-EZByk-15" value="" style="edgeStyle=orthogonalEdgeStyle;rounded=0;orthogonalLoop=1;jettySize=auto;html=1;" edge="1" parent="WIyWlLk6GJQsqaUBKTNV-1" source="v9vbpIkVkLCxPb-EZByk-12" target="v9vbpIkVkLCxPb-EZByk-14">
          <mxGeometry relative="1" as="geometry" />
        </mxCell>
        <mxCell id="v9vbpIkVkLCxPb-EZByk-12" value="refresh and start pinned" style="whiteSpace=wrap;html=1;rounded=1;glass=0;strokeWidth=1;shadow=0;" vertex="1" parent="WIyWlLk6GJQsqaUBKTNV-1">
          <mxGeometry x="160" y="470" width="120" height="60" as="geometry" />
        </mxCell>
        <mxCell id="v9vbpIkVkLCxPb-EZByk-14" value="end" style="whiteSpace=wrap;html=1;rounded=1;glass=0;strokeWidth=1;shadow=0;" vertex="1" parent="WIyWlLk6GJQsqaUBKTNV-1">
          <mxGeometry x="160" y="570" width="120" height="60" as="geometry" />
        </mxCell>
      </root>
    </mxGraphModel>
  </diagram>
</mxfile>
